<svg width="26" height="26" viewBox="0 0 26 26" fill="none" xmlns="http://www.w3.org/2000/svg">
<path d="M16.7727 12.8777C16.7727 13.6628 16.5399 14.4302 16.1038 15.083C15.6676 15.7357 15.0477 16.2445 14.3223 16.5449C13.597 16.8454 12.7989 16.924 12.0289 16.7708C11.2589 16.6177 10.5516 16.2396 9.9965 15.6845C9.44137 15.1293 9.06332 14.4221 8.91016 13.6521C8.757 12.8821 8.8356 12.084 9.13604 11.3586C9.43647 10.6333 9.94525 10.0134 10.598 9.57722C11.2508 9.14106 12.0182 8.90826 12.8033 8.90826C13.8551 8.91153 14.8628 9.33078 15.6065 10.0745C16.3502 10.8182 16.7695 11.8259 16.7727 12.8777ZM25.2077 7.41972V18.3356C25.2077 20.178 24.4759 21.9448 23.1732 23.2475C21.8704 24.5503 20.1036 25.2821 18.2613 25.2821H7.34535C5.50303 25.2821 3.73616 24.5503 2.43344 23.2475C1.13072 21.9448 0.398865 20.178 0.398865 18.3356V7.41972C0.398865 5.5774 1.13072 3.81053 2.43344 2.50782C3.73616 1.2051 5.50303 0.473236 7.34535 0.473236H18.2613C20.1036 0.473236 21.8704 1.2051 23.1732 2.50782C24.4759 3.81053 25.2077 5.5774 25.2077 7.41972ZM18.7574 12.8777C18.7574 11.7001 18.4082 10.5489 17.754 9.56974C17.0997 8.59059 16.1698 7.82743 15.0819 7.37678C13.9939 6.92612 12.7967 6.80821 11.6417 7.03795C10.4867 7.26769 9.4258 7.83477 8.5931 8.66747C7.7604 9.50017 7.19332 10.5611 6.96358 11.7161C6.73384 12.8711 6.85175 14.0683 7.30241 15.1562C7.75306 16.2442 8.51622 17.1741 9.49537 17.8284C10.4745 18.4826 11.6257 18.8318 12.8033 18.8318C14.3824 18.8318 15.8969 18.2045 17.0135 17.0879C18.1301 15.9713 18.7574 14.4568 18.7574 12.8777ZM20.7421 6.42737C20.7421 6.13296 20.6548 5.84517 20.4913 5.60038C20.3277 5.3556 20.0952 5.16481 19.8233 5.05214C19.5513 4.93948 19.252 4.91 18.9632 4.96744C18.6745 5.02487 18.4092 5.16664 18.2011 5.37482C17.9929 5.58299 17.8511 5.84822 17.7937 6.13697C17.7362 6.42572 17.7657 6.72501 17.8784 6.997C17.9911 7.269 18.1818 7.50148 18.4266 7.66504C18.6714 7.8286 18.9592 7.9159 19.2536 7.9159C19.6484 7.9159 20.027 7.75907 20.3062 7.47992C20.5853 7.20077 20.7421 6.82215 20.7421 6.42737Z" fill="white"/>
</svg>
