<svg width="27" height="28" viewBox="0 0 27 28" fill="none" xmlns="http://www.w3.org/2000/svg">
<path d="M13.7289 0.718384C6.46111 0.718384 0.56958 6.60991 0.56958 13.8777C0.56958 21.1455 6.46111 27.037 13.7289 27.037C20.9967 27.037 26.8882 21.1455 26.8882 13.8777C26.8882 6.60991 20.9967 0.718384 13.7289 0.718384ZM10.5076 19.3319H7.84284V10.7565H10.5076V19.3319ZM9.15877 9.70372C8.31712 9.70372 7.77293 9.10744 7.77293 8.36997C7.77293 7.61742 8.33357 7.03896 9.19304 7.03896C10.0525 7.03896 10.5789 7.61742 10.5953 8.36997C10.5953 9.10744 10.0525 9.70372 9.15877 9.70372ZM20.24 19.3319H17.5752V14.5795C17.5752 13.4733 17.1887 12.7221 16.225 12.7221C15.4889 12.7221 15.0517 13.2307 14.8584 13.72C14.7871 13.8941 14.7693 14.1409 14.7693 14.3862V19.3306H12.1032V13.4911C12.1032 12.4206 12.0689 11.5255 12.0333 10.7551H14.3485L14.4705 11.9463H14.5239C14.8748 11.387 15.7343 10.5618 17.1722 10.5618C18.9254 10.5618 20.24 11.7366 20.24 14.2615V19.3319Z" fill="white"/>
</svg>
